<mxfile host="app.diagrams.net" modified="2023-03-06T23:21:01.793Z" agent="5.0 (Windows NT 10.0; Win64; x64) AppleWebKit/537.36 (KHTML, like Gecko) Chrome/110.0.0.0 Safari/537.36" etag="zYCnwJpj1VxbkZPshuWw" version="21.0.2" type="github">
  <diagram name="Page-1" id="hdjN3IVHqvDialWESBbV">
    <mxGraphModel dx="1050" dy="620" grid="1" gridSize="10" guides="1" tooltips="1" connect="1" arrows="1" fold="1" page="1" pageScale="1" pageWidth="850" pageHeight="1100" math="0" shadow="0">
      <root>
        <mxCell id="0" />
        <mxCell id="1" parent="0" />
        <mxCell id="dvTOPvzMRayBpX4VaHbM-3" value="" style="shape=cylinder3;whiteSpace=wrap;html=1;boundedLbl=1;backgroundOutline=1;size=15;" vertex="1" parent="1">
          <mxGeometry x="390" y="280" width="60" height="80" as="geometry" />
        </mxCell>
        <mxCell id="dvTOPvzMRayBpX4VaHbM-4" value="" style="shape=cylinder3;whiteSpace=wrap;html=1;boundedLbl=1;backgroundOutline=1;size=15;" vertex="1" parent="1">
          <mxGeometry x="390" y="280" width="60" height="80" as="geometry" />
        </mxCell>
        <mxCell id="dvTOPvzMRayBpX4VaHbM-5" value="" style="triangle;whiteSpace=wrap;html=1;" vertex="1" parent="1">
          <mxGeometry x="190" y="250" width="200" height="80" as="geometry" />
        </mxCell>
      </root>
    </mxGraphModel>
  </diagram>
</mxfile>
